<?xml version="1.0" encoding="iso-8859-1"?>
<!-- Generator: Adobe Illustrator 19.0.0, SVG Export Plug-In . SVG Version: 6.00 Build 0)  -->
<svg xmlns="http://www.w3.org/2000/svg" xmlns:xlink="http://www.w3.org/1999/xlink" version="1.1" id="Layer_1" x="0px" y="0px" viewBox="0 0 512 512" style="enable-background:new 0 0 512 512;" xml:space="preserve">
<path style="fill:#C7CFE2;" d="M368.227,39.565H175.84c-13.282,0-24.048,10.767-24.048,24.048v128.258  c0,13.282,10.767,24.048,24.048,24.048h64.129l64.448,42.965c2.919,1.946,6.753-0.533,6.177-3.994l-6.495-38.971h64.129  c13.282,0,24.048-10.767,24.048-24.048V63.613C392.275,50.331,381.508,39.565,368.227,39.565z"/>
<path style="fill:#5A4146;" d="M182.879,380.707c-8.372-22.184-15.013-60.319-16.447-80.173  c-2.728-37.782-31.202-68.582-69.691-68.582s-66.962,30.8-69.691,68.582c-1.434,19.854-8.075,57.989-16.447,80.173  c-1.845,4.89,0.285,10.283,5.1,12.466c8.972,4.066,28.1,12.031,51.17,15.134h59.735c22.962-3.11,42.224-11.08,51.17-15.134  C182.594,390.99,184.724,385.597,182.879,380.707z"/>
<path style="fill:#694B4B;" d="M177.779,393.172c4.815-2.183,6.946-7.575,5.1-12.466c-8.372-22.184-15.013-60.319-16.447-80.173  c-2.728-37.782-31.202-68.582-69.691-68.582c-0.097,0-0.194,0-0.291,0.001c-29.533,0.12-39.97,40.397-14.546,55.426  c1.527,0.903,2.505,1.337,2.505,1.337l22.268,119.591h19.931C149.571,405.196,168.833,397.227,177.779,393.172z"/>
<path style="fill:#E6AF78;" d="M167.607,427.976l-31.706-15.852c-6.639-3.319-10.832-10.105-10.832-17.527l0.002-29.394H66.286  v29.394c0,7.422-4.193,14.206-10.831,17.526l-31.706,15.854c-9.958,4.978-16.248,15.155-16.248,26.288V504.5h176.355v-50.234  C183.856,443.132,177.565,432.955,167.607,427.976z"/>
<path style="fill:#D29B6E;" d="M95.678,404.392c10.55,0,20.654-2.174,29.918-6.046c-0.243-1.235-0.527-2.463-0.527-3.751  l0.002-29.393H66.286v29.394c0,1.294-0.283,2.528-0.529,3.768C75.026,402.216,85.126,404.392,95.678,404.392z"/>
<path style="fill:#FF507D;" d="M167.607,427.976l-22.587-11.293c-10.473,16.173-28.639,26.899-49.341,26.899  c-20.703,0-38.869-10.727-49.343-26.901l-22.587,11.294c-9.958,4.98-16.248,15.157-16.248,26.29V504.5h176.355v-50.234  C183.856,443.133,177.565,432.955,167.607,427.976z"/>
<path style="fill:#F0C087;" d="M95.678,384.797L95.678,384.797c-29.888,0-54.566-22.304-58.297-51.176  c-0.541-4.183,1.47-8.285,5.235-10.185c4.511-2.276,11.065-6.112,17.342-11.712c6.989-6.236,11.089-12.812,13.405-17.64  c1.994-4.158,6.578-6.508,11.046-5.369c34.497,8.799,57.982,26.746,66.502,34.073c2.288,1.967,3.606,4.868,3.37,7.877  C151.91,360.956,126.579,384.797,95.678,384.797z"/>
<path style="fill:#E6AF78;" d="M150.913,322.788c-8.521-7.327-32.006-25.274-66.503-34.073c-4.468-1.139-9.052,1.212-11.047,5.369  c-1.754,3.656-4.651,8.314-8.953,13.069c-0.002,0.011-0.004,0.022-0.006,0.033c-1.335,1.513-2.756,3.029-4.446,4.538  c-6.276,5.601-12.831,9.436-17.342,11.712c-3.765,1.9-5.775,6.002-5.235,10.185c3.35,25.93,23.642,46.413,49.385,50.349  c-11.731-7.98-20.481-18.798-20.481-38.363v-13.971c2.226-1.642,4.467-3.282,6.72-5.291c5.446-4.859,10.199-10.48,14.012-16.531  c48.743,10.315,64.444,34.096,64.444,34.096c1.38-4.248,2.46-8.629,2.822-13.245C154.518,327.657,153.2,324.756,150.913,322.788z"/>
<g>
	<path style="fill:#D23C69;" d="M177.883,436.604c3.775,5.008,5.973,11.154,5.973,17.662V504.5h-32.065v-34.768   c0-4.201,1.649-8.235,4.593-11.232L177.883,436.604z"/>
	<path style="fill:#D23C69;" d="M13.474,436.604c-3.775,5.007-5.973,11.153-5.973,17.661V504.5h32.065v-34.768   c0-4.201-1.649-8.235-4.593-11.232L13.474,436.604z"/>
</g>
<path style="fill:#5A4146;" d="M345.18,276.04v6.329c0,7.754,1.25,15.458,3.702,22.814l14.334,43.002h27.054v-99.2h-18.036  C357.293,248.986,345.18,261.099,345.18,276.04z"/>
<path style="fill:#694B4B;" d="M468.659,294.774l-15.26,53.411l-72.145-63.127c-9.961,0-18.036-8.075-18.036-18.036l0,0  c0-14.942,12.113-27.054,27.054-27.054h81.163v34.986C471.434,281.658,470.5,288.328,468.659,294.774z"/>
<rect x="379.451" y="376.24" style="fill:#E6AF78;" width="57.716" height="50.591"/>
<path style="fill:#D29B6E;" d="M379.449,401.928c8.922,3.625,18.65,5.666,28.858,5.666s19.936-2.041,28.858-5.666v-25.686h-57.716  V401.928z"/>
<path style="fill:#00AAF0;" d="M483.57,420.853l-46.408-13.258l-28.855,19.149l-28.858-19.15l-46.405,13.259  c-12.389,3.54-20.93,14.863-20.93,27.748V504.5h192.387v-55.899C504.501,435.716,495.959,424.392,483.57,420.853z"/>
<path style="fill:#F0C087;" d="M408.308,384.258L408.308,384.258c-29.884,0-54.109-24.225-54.109-54.109v-10.565  c0-4.784,1.9-9.371,5.283-12.754l16.353-16.353c3.463-3.463,8.198-5.454,13.093-5.3c28.828,0.909,54.344,7.085,68.293,20.708  c3.414,3.335,5.197,8,5.197,12.773v11.491C462.416,360.033,438.191,384.258,408.308,384.258z"/>
<path style="fill:#E6AF78;" d="M381.253,328.145c0-10.403,8.715-18.01,19.118-18.01c15.952,0,48.017,1.978,61.794,12.176  c-0.541-3.805-2.176-13.72-4.946-16.426c-13.948-13.623-39.465-19.799-68.293-20.708l-0.001,0.001l-0.001-0.001  c-4.894-0.154-9.629,1.838-13.091,5.3l-21.636,21.636v18.036c0,24.676,16.534,45.452,39.116,51.958  c-7.517-9.274-12.062-21.045-12.062-33.922v-20.04H381.253z"/>
<g>
	<path style="fill:#0096DC;" d="M350.591,477.263c0-7.654-3.04-14.994-8.452-20.406l-24.762-24.762   c-3.31,4.73-5.264,10.425-5.264,16.504V504.5h38.477v-27.237H350.591z"/>
	<path style="fill:#0096DC;" d="M466.024,477.263c0-7.654,3.04-14.994,8.452-20.406l24.762-24.762   c3.31,4.73,5.264,10.425,5.264,16.504V504.5h-38.477v-27.237H466.024z"/>
</g>
<path style="fill:#E2E7F2;" d="M336.162,7.5H111.711c-13.282,0-24.048,10.767-24.048,24.048v128.258  c0,13.282,10.767,24.048,24.048,24.048h88.177l-13.357,53.427c-0.908,3.632,3.218,6.416,6.246,4.214l79.256-57.641h64.129  c13.282,0,24.048-10.767,24.048-24.048V31.548C360.211,18.267,349.444,7.5,336.162,7.5z"/>
<path d="M173.917,427.016l-29.868-14.934c19.976-5.695,32.546-13.076,38.81-17.466c6.023-4.222,8.28-11.87,5.489-18.598  c-5.932-14.297-12.9-41.51-13.023-71.153c-0.171-41.199-31.857-76.37-72.137-80.069c-4.991-0.458-10.032-0.458-15.02,0  c-40.28,3.699-71.967,38.87-72.138,80.069c-0.123,29.643-7.092,56.856-13.023,71.153c-2.791,6.729-0.533,14.376,5.49,18.598  c6.264,4.39,18.832,11.771,38.81,17.466L17.44,427.016c-10.756,5.379-17.439,16.191-17.439,28.218V504.5c0,4.142,3.357,7.5,7.5,7.5  s7.5-3.358,7.5-7.5v-49.266c0-6.309,3.505-11.98,9.148-14.802l23.676-11.838c9.931,16.741,28.151,27.293,47.854,27.293  c19.878,0,37.946-10.506,47.857-27.291l23.672,11.836c5.643,2.822,9.147,8.493,9.147,14.802V504.5c0,4.142,3.357,7.5,7.5,7.5  s7.5-3.358,7.5-7.5v-49.266C191.355,443.208,184.674,432.395,173.917,427.016z M16.863,381.767  c6.453-15.557,14.036-45.014,14.168-76.838c0.139-33.557,25.839-62.194,58.51-65.194c4.08-0.375,8.193-0.375,12.275,0  c32.67,3,58.37,31.637,58.509,65.194c0.132,31.824,7.715,61.282,14.168,76.838c0.111,0.267-0.104,0.47-0.242,0.566  c-6.62,4.638-21.424,13.119-46.711,18.357c-0.203-0.734-0.313-1.503-0.313-2.292v-15.045c9.763-5.58,18.057-13.726,23.793-23.82  c10.52-18.512,6.718-42.408-9.04-56.82c-11.048-10.104-30.83-22.148-62.333-22.148c-1.989,0-3.896,0.79-5.304,2.197l-16.032,16.031  c-2.929,2.929-2.929,7.678,0,10.606c2.93,2.929,7.678,2.929,10.607,0l13.793-13.793c20.041,0.561,36.563,6.668,49.146,18.175  c10.641,9.732,13.216,25.857,6.122,38.34c-8.636,15.196-24.845,24.636-42.3,24.636c-26.806,0-48.613-21.808-48.613-48.613  c0-4.142-3.357-7.5-7.5-7.5s-7.5,3.358-7.5,7.5c0,23.6,12.928,44.224,32.064,55.204v15.049c0,0.789-0.111,1.558-0.313,2.292  c-25.289-5.238-40.091-13.719-46.709-18.356C16.969,382.236,16.752,382.033,16.863,381.767z M95.679,440.887  c-14.028,0-27.015-7.333-34.379-19.03l4.822-2.411c8.023-4.012,13.008-12.077,13.008-21.048v-8.836  c5.28,1.424,10.825,2.197,16.549,2.197c5.658,0,11.216-0.76,16.548-2.203v8.842c0,8.97,4.984,17.035,13.008,21.048l4.842,2.421  C122.731,433.593,109.833,440.887,95.679,440.887z"/>
<path d="M39.565,464.936c-4.143,0-7.5,3.358-7.5,7.5V504.5c0,4.142,3.357,7.5,7.5,7.5s7.5-3.358,7.5-7.5v-32.064  C47.065,468.293,43.708,464.936,39.565,464.936z"/>
<path d="M151.791,464.936c-4.143,0-7.5,3.358-7.5,7.5V504.5c0,4.142,3.357,7.5,7.5,7.5s7.5-3.358,7.5-7.5v-32.064  C159.291,468.293,155.934,464.936,151.791,464.936z"/>
<path d="M383.743,296.081v-1.696c16.067-2.295,28.778-0.412,36.939,1.735c9.833,2.587,15.377,6.104,15.56,6.222  c1.271,0.839,2.705,1.24,4.123,1.24c2.424,0,4.802-1.173,6.247-3.341c2.298-3.446,1.366-8.103-2.08-10.4  c-1.088-0.725-27.124-17.657-69.76-9.13c-3.506,0.701-6.029,3.779-6.029,7.354v8.016c0,4.142,3.357,7.5,7.5,7.5  S383.743,300.223,383.743,296.081z"/>
<path d="M491.53,419.481l-38.122-14.296c-3.312-1.242-5.536-4.452-5.536-7.989v-19.231c1.633-1.302,3.213-2.69,4.732-4.165  c12.456-12.087,19.315-28.302,19.315-45.655v-14.262l2.146-4.293c3.84-7.679,5.87-16.276,5.87-24.864v-44.759  c0-4.142-3.357-7.5-7.5-7.5h-83.528c-28.8,0-52.229,23.43-52.229,52.259c0,8.586,2.029,17.184,5.869,24.863l2.146,4.293v11.909  c0,20.629,9.437,39.283,24.049,51.452v19.952c0,3.537-2.225,6.747-5.537,7.989l-38.12,14.296  c-12.245,4.591-20.472,16.462-20.472,29.54v55.48c0,4.142,3.357,7.5,7.5,7.5s7.5-3.358,7.5-7.5v-55.479  c0-6.86,4.315-13.086,10.738-15.495l38.121-14.296c2.063-0.774,3.963-1.837,5.684-3.112l26.65,19.987V504.5  c0,4.142,3.357,7.5,7.5,7.5s7.5-3.358,7.5-7.5v-68.395l26.649-19.987c1.721,1.276,3.621,2.339,5.684,3.112l38.123,14.296  c6.422,2.408,10.737,8.635,10.737,15.495V504.5c0,4.142,3.357,7.5,7.5,7.5s7.5-3.358,7.5-7.5v-55.479  C512.001,435.943,503.774,424.072,491.53,419.481z M359.694,325.792v-13.68c0-1.165-0.271-2.313-0.792-3.354l-2.938-5.877  c-2.804-5.607-4.285-11.885-4.285-18.184c0-20.529,16.701-37.23,37.229-37.23h76.028v37.259c0,6.27-1.482,12.548-4.286,18.155  l-2.938,5.877c-0.521,1.042-0.792,2.189-0.792,3.354v16.032c0,13.262-5.242,25.653-14.762,34.891  c-9.514,9.233-22.061,14.099-35.353,13.7C380.828,375.956,359.694,353.103,359.694,325.792z M406.356,391.729  c0.66,0.02,1.317,0.03,1.975,0.03c8.565,0,16.864-1.691,24.541-4.905v10.343c0,2.279,0.347,4.504,0.977,6.627l-25.542,19.156  l-25.542-19.156c0.63-2.123,0.977-4.349,0.977-6.627v-10.63C390.751,389.659,398.375,391.489,406.356,391.729z"/>
<path d="M352.194,456.919c-4.143,0-7.5,3.358-7.5,7.5V504.5c0,4.142,3.357,7.5,7.5,7.5s7.5-3.358,7.5-7.5v-40.081  C359.694,460.277,356.337,456.919,352.194,456.919z"/>
<path d="M464.42,456.919c-4.143,0-7.5,3.358-7.5,7.5V504.5c0,4.142,3.357,7.5,7.5,7.5s7.5-3.358,7.5-7.5v-40.081  C471.92,460.277,468.563,456.919,464.42,456.919z"/>
<path d="M312.889,265.213c3.854-2.493,5.857-7.028,5.103-11.555l-5.04-30.238h55.275c17.396,0,31.549-14.152,31.549-31.548V63.613  c0-17.396-14.152-31.548-31.549-31.548h-0.516v-0.516C367.711,14.152,353.559,0,336.162,0H111.711  C94.314,0,80.162,14.152,80.162,31.548v128.258c0,17.396,14.152,31.548,31.549,31.548h32.58v0.516  c0,17.396,14.152,31.548,31.549,31.548h6.426l-3.011,12.043c-1.188,4.751,0.668,9.592,4.729,12.331  c1.972,1.33,4.208,1.993,6.44,1.993c2.365,0,4.727-0.744,6.765-2.226l33.195-24.142h7.315l62.558,41.706  c1.934,1.289,4.158,1.934,6.384,1.934C308.812,267.059,310.985,266.444,312.889,265.213z M175.84,208.419  c-9.125,0-16.549-7.423-16.549-16.548v-0.516h30.991l-4.266,17.064L175.84,208.419L175.84,208.419z M196.138,229.778l11.026-44.104  c0.56-2.24,0.057-4.614-1.365-6.435c-1.421-1.82-3.602-2.884-5.911-2.884h-88.177c-9.125,0-16.549-7.423-16.549-16.548V31.548  c0-9.125,7.424-16.548,16.549-16.548h224.451c9.125,0,16.549,7.423,16.549,16.548v128.258c0,9.125-7.424,16.548-16.549,16.548  h-64.129c-1.585,0-3.129,0.502-4.411,1.435L196.138,229.778z M296.7,217.152l5.17,31.021l-55.056-36.703l27.657-20.115h61.69  c17.396,0,31.549-14.152,31.549-31.548V47.064h0.516c9.125,0,16.549,7.423,16.549,16.548V191.87c0,9.125-7.424,16.548-16.549,16.548  h-64.129c-2.205,0-4.298,0.97-5.723,2.652S296.337,214.978,296.7,217.152z"/>
<path d="M143.775,63.097h24.045c4.143,0,7.5-3.358,7.5-7.5s-3.357-7.5-7.5-7.5h-24.045c-4.143,0-7.5,3.358-7.5,7.5  S139.633,63.097,143.775,63.097z"/>
<path d="M199.89,63.097h104.208c4.143,0,7.5-3.358,7.5-7.5s-3.357-7.5-7.5-7.5H199.89c-4.143,0-7.5,3.358-7.5,7.5  S195.747,63.097,199.89,63.097z"/>
<path d="M143.775,103.178h160.322c4.143,0,7.5-3.358,7.5-7.5s-3.357-7.5-7.5-7.5H143.775c-4.143,0-7.5,3.358-7.5,7.5  S139.633,103.178,143.775,103.178z"/>
<path d="M247.983,128.258H143.775c-4.143,0-7.5,3.358-7.5,7.5s3.357,7.5,7.5,7.5h104.208c4.143,0,7.5-3.358,7.5-7.5  S252.126,128.258,247.983,128.258z"/>
<path d="M304.098,128.258h-24.045c-4.143,0-7.5,3.358-7.5,7.5s3.357,7.5,7.5,7.5h24.045c4.143,0,7.5-3.358,7.5-7.5  S308.24,128.258,304.098,128.258z"/>
<g>
</g>
<g>
</g>
<g>
</g>
<g>
</g>
<g>
</g>
<g>
</g>
<g>
</g>
<g>
</g>
<g>
</g>
<g>
</g>
<g>
</g>
<g>
</g>
<g>
</g>
<g>
</g>
<g>
</g>
</svg>
