<?xml version="1.0" encoding="iso-8859-1"?>
<!-- Generator: Adobe Illustrator 19.0.0, SVG Export Plug-In . SVG Version: 6.00 Build 0)  -->
<svg xmlns="http://www.w3.org/2000/svg" xmlns:xlink="http://www.w3.org/1999/xlink" version="1.1" id="Layer_1" x="0px" y="0px" viewBox="0 0 512 512" style="enable-background:new 0 0 512 512;" xml:space="preserve">
<path style="fill:#5A4146;" d="M387.216,72.47c7.443-10.553,4.218-25.219-6.966-31.676s-25.498-1.917-30.916,9.805l-27.057,58.542  l27.769,16.032L387.216,72.47z"/>
<path style="fill:#785550;" d="M390.371,65.52c-0.793-0.617-1.55-1.266-2.447-1.784c-11.184-6.457-25.498-1.917-30.916,9.805  l-20.303,43.929l13.341,7.702l37.171-52.704C388.748,70.298,389.719,67.933,390.371,65.52z"/>
<path style="fill:#5A4146;" d="M162.666,461.403c-5.418,11.722-19.732,16.262-30.916,9.805s-14.409-21.123-6.966-31.677  l37.171-52.703l27.769,16.032L162.666,461.403z"/>
<path style="fill:#785550;" d="M158.225,467.609c-0.931-0.379-1.872-0.709-2.768-1.227c-11.184-6.457-14.409-21.123-6.966-31.676  l27.892-39.548l13.341,7.702l-27.057,58.542C161.551,463.815,159.988,465.838,158.225,467.609z"/>
<path style="fill:#5A4146;" d="M162.666,50.599c-5.418-11.722-19.732-16.262-30.916-9.805s-14.409,21.123-6.966,31.676  l37.171,52.704l27.769-16.032L162.666,50.599z"/>
<path style="fill:#785550;" d="M158.225,44.392c-0.931,0.379-1.872,0.709-2.768,1.227c-11.184,6.457-14.409,21.123-6.966,31.676  l27.892,39.548l13.341-7.702l-27.057-58.542C161.551,48.186,159.988,46.163,158.225,44.392z"/>
<path style="fill:#5A4146;" d="M387.216,439.532c7.443,10.553,4.218,25.219-6.966,31.676s-25.498,1.917-30.916-9.805l-27.057-58.542  l27.769-16.032L387.216,439.532z"/>
<path style="fill:#785550;" d="M390.371,446.481c-0.793,0.617-1.55,1.266-2.447,1.784c-11.184,6.457-25.498,1.917-30.916-9.805  l-20.303-43.929l13.341-7.702l37.171,52.704C388.748,441.704,389.719,444.068,390.371,446.481z"/>
<path style="fill:#5A4146;" d="M31.45,234.129C18.589,232.96,7.5,243.086,7.5,256.001c0,12.914,11.089,23.04,23.95,21.871  l64.228-5.839v-32.065L31.45,234.129z"/>
<path style="fill:#785550;" d="M23.854,234.872c-0.137,0.995-0.321,1.976-0.321,3.011c0,12.914,11.089,23.04,23.95,21.871  l48.196-4.381v-15.405l-64.228-5.839C28.803,233.889,26.269,234.23,23.854,234.872z"/>
<path style="fill:#5A4146;" d="M480.55,234.129c12.861-1.169,23.95,8.957,23.95,21.871c0,12.914-11.089,23.04-23.95,21.871  l-64.228-5.839v-32.065L480.55,234.129z"/>
<path style="fill:#785550;" d="M488.146,234.872c0.137,0.995,0.321,1.976,0.321,3.011c0,12.914-11.089,23.04-23.95,21.871  l-48.196-4.381v-15.405l64.228-5.839C483.197,233.889,485.731,234.23,488.146,234.872z"/>
<path style="fill:#8C5F5F;" d="M256,87.662c-92.971,0-168.339,75.367-168.339,168.339c0,92.971,75.368,168.339,168.339,168.339  s168.339-75.369,168.339-168.339C424.339,163.029,348.971,87.662,256,87.662z M256,384.259  c-70.835,0-128.258-57.423-128.258-128.258S185.165,127.743,256,127.743s128.258,57.423,128.258,128.258  S326.835,384.259,256,384.259z"/>
<path style="fill:#FFC850;" d="M256,207.904c-26.563,0-48.097,21.534-48.097,48.097s21.534,48.097,48.097,48.097  s48.097-21.534,48.097-48.097C304.097,229.438,282.563,207.904,256,207.904z"/>
<path style="fill:#785550;" d="M256,108.704c-81.35,0-147.296,65.947-147.296,147.296S174.65,403.297,256,403.297  s147.296-65.947,147.296-147.296S337.35,108.704,256,108.704z M256,384.259c-70.835,0-128.258-57.423-128.258-128.258  S185.165,127.743,256,127.743s128.258,57.423,128.258,128.258S326.835,384.259,256,384.259z"/>
<path style="fill:#E1A546;" d="M256,231.952c-13.281,0-24.048,10.766-24.048,24.048c0,13.281,10.767,24.048,24.048,24.048  s24.048-10.767,24.048-24.048C280.048,242.719,269.281,231.952,256,231.952z"/>
<path d="M363.247,172.742c-2.543-3.268-7.255-3.857-10.525-1.313c-3.269,2.544-3.856,7.256-1.313,10.525  c15.372,19.752,23.665,43.013,25.099,66.546h-65.432c-2.001-14.763-9.812-27.698-21.056-36.426l32.747-56.72  c2.472,1.645,4.902,3.388,7.278,5.237c3.269,2.545,7.981,1.956,10.525-1.313c2.544-3.27,1.956-7.981-1.313-10.525  c-53.862-41.916-130.925-37.079-179.254,11.251c-48.331,48.331-53.167,125.394-11.251,179.255c1.479,1.899,3.689,2.894,5.924,2.894  c1.61,0,3.232-0.516,4.601-1.581c3.269-2.544,3.856-7.256,1.313-10.525c-15.372-19.752-23.665-43.013-25.099-66.546h65.432  c2.001,14.763,9.812,27.698,21.056,36.426l-32.747,56.721c-2.472-1.645-4.902-3.388-7.278-5.237  c-3.268-2.543-7.981-1.955-10.525,1.313c-2.544,3.27-1.956,7.981,1.313,10.525c24.534,19.093,53.882,28.485,83.135,28.485  c34.969,0,69.803-13.421,96.119-39.736C400.326,303.666,405.163,226.603,363.247,172.742z M309.784,147.844l-32.74,56.708  c-6.496-2.667-13.598-4.148-21.044-4.148s-14.548,1.481-21.043,4.148l-32.723-56.679  C235.817,131.202,275.812,130.935,309.784,147.844z M170.611,170.612c5.785-5.784,12.035-10.862,18.632-15.239l32.736,56.701  c-11.244,8.728-19.055,21.663-21.056,36.426h-65.424C137.287,219.999,149.112,192.11,170.611,170.612z M215.403,256.001  c0-22.385,18.211-40.597,40.597-40.597s40.597,18.212,40.597,40.597S278.385,296.597,256,296.597S215.403,278.385,215.403,256.001z   M202.217,364.157l32.74-56.708c6.496,2.667,13.599,4.148,21.044,4.148s14.548-1.482,21.044-4.148l32.723,56.678  C276.183,380.799,236.188,381.066,202.217,364.157z M341.389,341.389c-5.785,5.784-12.035,10.862-18.632,15.239l-32.736-56.701  c11.244-8.728,19.055-21.663,21.056-36.426h65.424C374.713,292.002,362.888,319.891,341.389,341.389z"/>
<path d="M502.373,234.303c-6.118-5.537-14.338-8.236-22.548-7.421l-49.652,4.965c-6.399-46.371-30.939-87.027-66.214-114.545  l29.171-40.58c4.817-6.701,6.583-15.171,4.847-23.238S391.146,38.423,384,34.298s-15.75-5.041-23.604-2.512  c-7.854,2.53-14.306,8.295-17.701,15.817l-20.53,45.492C301.73,84.766,279.394,80.162,256,80.162s-45.73,4.604-66.165,12.934  l-20.53-45.492c-3.395-7.522-9.846-13.287-17.701-15.817c-7.854-2.528-16.457-1.615-23.604,2.512  c-7.146,4.125-12.241,11.118-13.977,19.186c-1.736,8.067,0.03,16.537,4.847,23.238l29.171,40.58  c-35.275,27.518-59.815,68.174-66.214,114.545l-49.652-4.965c-8.207-0.819-16.429,1.884-22.548,7.421  C3.509,239.841,0,247.749,0,256.001c0,8.252,3.509,16.16,9.627,21.697c5.397,4.885,12.43,7.565,19.649,7.565  c0.964,0,1.932-0.048,2.899-0.145l49.652-4.965c6.399,46.371,30.939,87.027,66.214,114.545l-29.171,40.58  c-4.817,6.701-6.583,15.171-4.847,23.238c1.736,8.067,6.831,15.061,13.977,19.186c4.489,2.592,9.552,3.917,14.645,3.917  c3.014,0,6.039-0.465,8.959-1.405c7.854-2.53,14.306-8.295,17.701-15.817l20.53-45.492c20.435,8.33,42.771,12.934,66.165,12.934  s45.73-4.604,66.165-12.934l20.53,45.492c3.395,7.522,9.846,13.287,17.701,15.817c2.921,0.94,5.945,1.405,8.96,1.405  c5.091,0,10.155-1.325,14.644-3.917c7.146-4.125,12.241-11.118,13.977-19.186c1.736-8.067-0.03-16.537-4.847-23.238l-29.171-40.58  c35.275-27.518,59.815-68.174,66.214-114.545l49.652,4.965c0.968,0.097,1.934,0.145,2.899,0.145c7.219,0,14.251-2.681,19.649-7.565  c6.118-5.537,9.627-13.445,9.627-21.697S508.491,239.841,502.373,234.303z M356.367,53.774c1.679-3.721,4.743-6.458,8.628-7.71  c3.886-1.249,7.97-0.815,11.505,1.225c3.535,2.041,5.954,5.361,6.813,9.352c0.859,3.989,0.02,8.013-2.363,11.326l-29.201,40.622  c-5.138-3.349-10.456-6.443-15.944-9.25L356.367,53.774z M131.05,67.966c-2.382-3.313-3.222-7.337-2.363-11.326  c0.858-3.99,3.278-7.311,6.813-9.352c3.535-2.039,7.621-2.474,11.505-1.225c3.885,1.252,6.949,3.989,8.628,7.71l20.563,45.564  c-5.489,2.807-10.807,5.901-15.944,9.25L131.05,67.966z M30.683,270.193c-4.065,0.411-7.964-0.878-10.991-3.617  C16.667,263.838,15,260.082,15,256.001s1.667-7.837,4.692-10.575c3.026-2.739,6.926-4.023,10.991-3.617l49.719,4.972  c-0.159,3.054-0.241,6.128-0.241,9.221c0,3.093,0.082,6.167,0.241,9.221L30.683,270.193z M155.633,458.227  c-1.679,3.721-4.743,6.458-8.628,7.71c-3.885,1.249-7.971,0.815-11.505-1.225c-3.535-2.041-5.954-5.361-6.813-9.352  c-0.859-3.989-0.02-8.013,2.363-11.326l29.201-40.622c5.138,3.349,10.456,6.443,15.944,9.25L155.633,458.227z M380.95,444.035  c2.382,3.313,3.222,7.337,2.363,11.326c-0.858,3.99-3.278,7.311-6.813,9.352c-3.534,2.041-7.619,2.475-11.505,1.225  c-3.885-1.252-6.949-3.989-8.628-7.71l-20.563-45.564c5.489-2.807,10.807-5.901,15.944-9.25L380.95,444.035z M256,416.84  c-88.687,0-160.839-72.152-160.839-160.839S167.313,95.162,256,95.162s160.839,72.152,160.839,160.839S344.687,416.84,256,416.84z   M492.308,266.576c-3.026,2.739-6.927,4.021-10.991,3.617l-49.719-4.972c0.159-3.054,0.241-6.128,0.241-9.221  s-0.082-6.167-0.241-9.221l49.719-4.972c4.063-0.415,7.964,0.878,10.991,3.617c3.025,2.74,4.692,6.496,4.692,10.577  S495.333,263.838,492.308,266.576z"/>
<g>
</g>
<g>
</g>
<g>
</g>
<g>
</g>
<g>
</g>
<g>
</g>
<g>
</g>
<g>
</g>
<g>
</g>
<g>
</g>
<g>
</g>
<g>
</g>
<g>
</g>
<g>
</g>
<g>
</g>
</svg>
